<svg xmlns="http://www.w3.org/2000/svg" viewBox="0 0 350 70" width="100%" height="100%">
  <!-- Open Book & Floating Squares (fill/stroke inherit parent color via currentColor) -->
  <g transform="translate(5, -5) scale(0.8)">
    <path d="M 50 78 C 38 77 24 72 20 68 C 19 67 19 45 22 36 C 24 30 40 28 50 38 Z" fill="currentColor"/>
    <path d="M 50 78 C 62 77 76 72 80 68 C 81 67 81 45 78 36 C 76 30 60 28 50 38 Z" fill="currentColor"/>
    <path d="M 50 82 C 34 81 18 75 14 70 C 13 69 13 58 14 55 M 14 62 C 14 68 34 76 50 77" stroke="currentColor" stroke-width="2.5" stroke-linecap="round" fill="none"/>
    <path d="M 50 82 C 66 81 82 75 86 70 C 87 69 87 58 86 55 M 86 62 C 86 68 66 76 50 77" stroke="currentColor" stroke-width="2.5" stroke-linecap="round" fill="none"/>
    <rect x="47" y="27" width="6" height="6" rx="1" fill="currentColor"/>
    <rect x="55" y="18" width="6" height="6" rx="1" fill="currentColor"/>
    <rect x="63" y="10" width="6" height="6" rx="1" fill="currentColor"/>
    <rect x="71" y="3" width="6" height="6" rx="1" fill="currentColor"/>
  </g>
  
  <!-- Vertical Divider -->
  <line x1="85" y1="12" x2="85" y2="58" stroke="currentColor" stroke-width="1" opacity="0.3"/>
  
  <!-- Branding Text -->
  <text x="100" y="38" font-family="'Outfit', 'Inter', sans-serif" font-size="25" font-weight="700" letter-spacing="6" fill="currentColor">CORPUS</text>
  <text x="100" y="54" font-family="'Inter', sans-serif" font-size="6.5" font-weight="600" letter-spacing="1.5" opacity="0.8" fill="currentColor">KNOWLEDGE. COMMUNICATION. IMPACT.</text>
</svg>
